<?xml version="1.0" standalone="no"?>
<!DOCTYPE svg PUBLIC "-//W3C//DTD SVG 20010904//EN"
 "http://www.w3.org/TR/2001/REC-SVG-20010904/DTD/svg10.dtd">
<svg version="1.0" xmlns="http://www.w3.org/2000/svg"
 width="512.000000pt" height="512.000000pt" viewBox="0 0 512.000000 512.000000"
 preserveAspectRatio="xMidYMid meet">

<g transform="translate(0.000000,512.000000) scale(0.100000,-0.100000)"
fill="#000000" stroke="none">
<path d="M3605 4630 c-152 -27 -281 -120 -351 -255 l-29 -55 -1322 -2 c-1317
-3 -1322 -3 -1349 -24 -53 -39 -69 -71 -69 -134 0 -63 16 -95 69 -134 27 -21
32 -21 1349 -24 l1322 -2 29 -55 c132 -254 455 -336 693 -178 65 43 122 106
159 177 l29 55 202 3 c221 3 227 5 277 72 29 39 29 133 0 172 -50 67 -56 69
-277 72 l-202 3 -29 55 c-95 181 -306 288 -501 254z m138 -324 c104 -43 128
-175 47 -256 -66 -66 -156 -67 -221 -1 -124 123 13 325 174 257z"/>
<path d="M1365 3030 c-152 -27 -281 -120 -351 -254 l-29 -55 -202 -3 c-221 -3
-227 -5 -277 -72 -29 -39 -29 -133 0 -172 50 -67 56 -69 277 -72 l202 -3 29
-55 c132 -253 455 -335 693 -177 66 43 122 106 159 178 l29 55 1322 2 c1317 3
1322 3 1349 24 53 39 69 71 69 134 0 63 -16 95 -69 134 -27 21 -32 21 -1349
24 l-1322 2 -29 56 c-95 181 -306 288 -501 254z m138 -324 c103 -43 128 -177
48 -257 -65 -65 -157 -65 -222 0 -124 123 13 325 174 257z"/>
<path d="M2805 1430 c-152 -27 -281 -120 -351 -255 l-29 -55 -922 -2 c-913 -3
-922 -3 -949 -24 -53 -39 -69 -71 -69 -134 0 -63 16 -95 69 -134 27 -21 36
-21 949 -24 l922 -2 29 -55 c132 -254 455 -336 693 -178 66 43 122 106 159
178 l29 55 602 2 c590 3 602 3 629 24 53 39 69 71 69 134 0 63 -16 95 -69 134
-27 21 -39 21 -629 24 l-602 2 -29 56 c-95 181 -306 288 -501 254z m138 -324
c103 -43 128 -177 48 -257 -65 -65 -157 -65 -222 0 -124 123 13 325 174 257z"/>
</g>
</svg>
